<mxfile host="app.diagrams.net" agent="Mozilla/5.0 (Windows NT 10.0; Win64; x64) AppleWebKit/537.36 (KHTML, like Gecko) Chrome/141.0.0.0 Safari/537.36" version="28.2.7">
  <diagram id="Architecture_Full_v1" name="Architecture_Full_v1">
    <mxGraphModel dx="1607" dy="766" grid="1" gridSize="10" guides="1" tooltips="1" connect="1" arrows="1" fold="1" page="1" pageScale="1" pageWidth="2400" pageHeight="1500" background="#ffffff" math="0" shadow="0">
      <root>
        <mxCell id="0" />
        <mxCell id="1" parent="0" />
        <mxCell id="tb0" value="TB0 - Internet / Public" style="rounded=1;whiteSpace=wrap;html=1;strokeColor:#999;fillColor:#f8f8f8;" parent="1" vertex="1">
          <mxGeometry x="40" y="40" width="520" height="260" as="geometry" />
        </mxCell>
        <mxCell id="tb1" value="TB1 - Public Web Edge" style="rounded=1;whiteSpace=wrap;html=1;strokeColor:#0d47a1;fillColor:#e3f2fd;" parent="1" vertex="1">
          <mxGeometry x="600" y="40" width="520" height="260" as="geometry" />
        </mxCell>
        <mxCell id="tb5" value="TB5 - SecOps Plane" style="rounded=1;whiteSpace=wrap;html=1;strokeColor:#ad1457;fillColor:#fce4ec;" parent="1" vertex="1">
          <mxGeometry x="1160" y="40" width="520" height="260" as="geometry" />
        </mxCell>
        <mxCell id="tb2" value="TB2 - Cloud SaaS / Identity" style="rounded=1;whiteSpace=wrap;html=1;strokeColor:#6a1b9a;fillColor:#f3e5f5;" parent="1" vertex="1">
          <mxGeometry x="40" y="340" width="940" height="300" as="geometry" />
        </mxCell>
        <mxCell id="tb4" value="TB4 - Endpoints" style="rounded=1;whiteSpace=wrap;html=1;strokeColor:#2e7d32;fillColor:#e8f5e9;" parent="1" vertex="1">
          <mxGeometry x="1000" y="340" width="680" height="460" as="geometry" />
        </mxCell>
        <mxCell id="tb3" value="TB3 - Corporate Network (HQ/Branch)" style="rounded=1;whiteSpace=wrap;html=1;strokeColor:#ef6c00;fillColor:#fff3e0;" parent="1" vertex="1">
          <mxGeometry x="40" y="680" width="940" height="420" as="geometry" />
        </mxCell>
        <mxCell id="public" value="Customers / Public Users" style="shape=ellipse;whiteSpace=wrap;html=1;strokeColor:#666;fillColor:#fff;" parent="1" vertex="1">
          <mxGeometry x="80" y="80" width="180" height="70" as="geometry" />
        </mxCell>
        <mxCell id="vendors" value="3rd-Party Vendors" style="shape=ellipse;whiteSpace=wrap;html=1;strokeColor:#666;fillColor:#fff;" parent="1" vertex="1">
          <mxGeometry x="320" y="180" width="200" height="70" as="geometry" />
        </mxCell>
        <mxCell id="waf" value="WAF/CDN (DDoS, TLS, OWASP, Bot Mitigation)" style="shape=process;whiteSpace=wrap;html=1;strokeColor:#0d47a1;fillColor:#d9ecff;" parent="1" vertex="1">
          <mxGeometry x="620" y="80" width="480" height="70" as="geometry" />
        </mxCell>
        <mxCell id="pubdns" value="Secure DNS / Registrar (DNSSEC, DMARC records)" style="shape=process;whiteSpace=wrap;html=1;strokeColor:#0d47a1;fillColor:#d9ecff;" parent="1" vertex="1">
          <mxGeometry x="620" y="180" width="480" height="70" as="geometry" />
        </mxCell>
        <mxCell id="siem" value="SIEM / MDR (Content Packs, Alert Routing)" style="shape=process;whiteSpace=wrap;html=1;strokeColor:#ad1457;fillColor:#ffd9e6;" parent="1" vertex="1">
          <mxGeometry x="1180" y="80" width="480" height="70" as="geometry" />
        </mxCell>
        <mxCell id="kms" value="Key Vault / KMS (Secrets, Certs)" style="shape=process;whiteSpace=wrap;html=1;strokeColor:#ad1457;fillColor:#ffd9e6;" parent="1" vertex="1">
          <mxGeometry x="1180" y="185" width="230" height="60" as="geometry" />
        </mxCell>
        <mxCell id="ticket" value="Ticketing &amp;amp; Chat (Pager/Chat/Ticket)" style="shape=process;whiteSpace=wrap;html=1;strokeColor:#ad1457;fillColor:#ffd9e6;" parent="1" vertex="1">
          <mxGeometry x="1430" y="185" width="230" height="60" as="geometry" />
        </mxCell>
        <mxCell id="idp" value="IdP/SSO (MFA, Conditional Access, SCIM)" style="shape=process;whiteSpace=wrap;html=1;strokeColor:#6a1b9a;fillColor:#ead7f7;" parent="1" vertex="1">
          <mxGeometry x="60" y="380" width="280" height="70" as="geometry" />
        </mxCell>
        <mxCell id="email" value="Email &amp;amp; File Suite (DLP, Anti-phish)" style="shape=process;whiteSpace=wrap;html=1;strokeColor:#6a1b9a;fillColor:#ead7f7;" parent="1" vertex="1">
          <mxGeometry x="360" y="380" width="260" height="70" as="geometry" />
        </mxCell>
        <mxCell id="saas" value="Other SaaS (CRM, HR, Accounting)" style="shape=process;whiteSpace=wrap;html=1;strokeColor:#6a1b9a;fillColor:#ead7f7;" parent="1" vertex="1">
          <mxGeometry x="660" y="380" width="300" height="70" as="geometry" />
        </mxCell>
        <mxCell id="ztna" value="ZTNA / Remote Access (Device Posture + SSO)" style="shape=process;whiteSpace=wrap;html=1;strokeColor:#6a1b9a;fillColor:#ead7f7;" parent="1" vertex="1">
          <mxGeometry x="50" y="520" width="280" height="70" as="geometry" />
        </mxCell>
        <mxCell id="backup" value="SaaS Backup (Separate Tenant, Immutability, RPO/RTO)" style="shape=process;whiteSpace=wrap;html=1;strokeColor:#6a1b9a;fillColor:#ead7f7;" parent="1" vertex="1">
          <mxGeometry x="360" y="520" width="600" height="70" as="geometry" />
        </mxCell>
        <mxCell id="endpoints" value="Managed Endpoints (EDR, MDM, Disk Encryption, Patch Rings)" style="shape=process;whiteSpace=wrap;html=1;strokeColor:#2e7d32;fillColor:#d9f1dc;" parent="1" vertex="1">
          <mxGeometry x="1020" y="380" width="640" height="90" as="geometry" />
        </mxCell>
        <mxCell id="remote" value="Remote Users (via ZTNA/VPN)" style="shape=ellipse;whiteSpace=wrap;html=1;strokeColor:#666;fillColor:#fff;" parent="1" vertex="1">
          <mxGeometry x="1040" y="500" width="280" height="70" as="geometry" />
        </mxCell>
        <mxCell id="wifi" value="Wi-Fi Clients (Staff/Guest)" style="shape=ellipse;whiteSpace=wrap;html=1;strokeColor:#666;fillColor:#fff;" parent="1" vertex="1">
          <mxGeometry x="1360" y="500" width="280" height="70" as="geometry" />
        </mxCell>
        <mxCell id="ngfw" value="NGFW / IPS (Egress, Geo/IP Reputation)" style="shape=process;whiteSpace=wrap;html=1;strokeColor:#ef6c00;fillColor:#ffe0b2;" parent="1" vertex="1">
          <mxGeometry x="60" y="720" width="300" height="70" as="geometry" />
        </mxCell>
        <mxCell id="sitetunnel" value="HQ &lt;-&gt; Branch Site-to-Site Tunnel" style="shape=process;whiteSpace=wrap;html=1;strokeColor:#ef6c00;fillColor:#ffe0b2;" parent="1" vertex="1">
          <mxGeometry x="60" y="810" width="300" height="70" as="geometry" />
        </mxCell>
        <mxCell id="vstaff" value="VLAN: Staff (802.1X)" style="rounded=1;whiteSpace=wrap;html=1;strokeColor:#ef6c00;fillColor:#fffaf3;" parent="1" vertex="1">
          <mxGeometry x="400" y="720" width="220" height="150" as="geometry" />
        </mxCell>
        <mxCell id="vguest" value="VLAN: Guest (Internet-only, rate-limited)" style="rounded=1;whiteSpace=wrap;html=1;strokeColor:#ef6c00;fillColor:#fffaf3;" parent="1" vertex="1">
          <mxGeometry x="650" y="720" width="220" height="150" as="geometry" />
        </mxCell>
        <mxCell id="viot" value="VLAN: IoT/Printers (No east-west)" style="rounded=1;whiteSpace=wrap;html=1;strokeColor:#ef6c00;fillColor:#fffaf3;" parent="1" vertex="1">
          <mxGeometry x="400" y="900" width="220" height="150" as="geometry" />
        </mxCell>
        <mxCell id="vserver" value="Server/Services (if any)" style="rounded=1;whiteSpace=wrap;html=1;strokeColor:#ef6c00;fillColor:#fffaf3;" parent="1" vertex="1">
          <mxGeometry x="650" y="900" width="220" height="150" as="geometry" />
        </mxCell>
        <mxCell id="f1" value="1" style="endArrow=classic;strokeColor=#0d47a1;" parent="1" source="public" target="waf" edge="1">
          <mxGeometry relative="1" as="geometry" />
        </mxCell>
        <mxCell id="f2" value="2" style="endArrow=classic;strokeColor=#0d47a1;dashed=1;" parent="1" source="waf" target="email" edge="1">
          <mxGeometry relative="1" as="geometry" />
        </mxCell>
        <mxCell id="f2b" value="2" style="endArrow=classic;strokeColor=#0d47a1;dashed=1;" parent="1" source="waf" target="saas" edge="1">
          <mxGeometry relative="1" as="geometry" />
        </mxCell>
        <mxCell id="f3" value="2" style="endArrow=classic;strokeColor=#6a1b9a;dashed=1;" parent="1" source="email" target="idp" edge="1">
          <mxGeometry relative="1" as="geometry" />
        </mxCell>
        <mxCell id="f4" value="2" style="endArrow=classic;strokeColor=#6a1b9a;dashed=1;" parent="1" source="saas" target="idp" edge="1">
          <mxGeometry relative="1" as="geometry" />
        </mxCell>
        <mxCell id="f5" value="4" style="endArrow=classic;strokeColor=#6a1b9a;dashed=1;" parent="1" source="idp" target="email" edge="1">
          <mxGeometry relative="1" as="geometry" />
        </mxCell>
        <mxCell id="f6" value="4" style="endArrow=classic;strokeColor=#6a1b9a;dashed=1;" parent="1" source="idp" target="saas" edge="1">
          <mxGeometry relative="1" as="geometry" />
        </mxCell>
        <mxCell id="f7" value="5" style="endArrow=classic;strokeColor=#6a1b9a;dashed=1;" parent="1" source="remote" target="ztna" edge="1">
          <mxGeometry relative="1" as="geometry" />
        </mxCell>
        <mxCell id="f8" value="5" style="endArrow=classic;strokeColor=#6a1b9a;dashed=1;" parent="1" source="ztna" target="vstaff" edge="1">
          <mxGeometry relative="1" as="geometry" />
        </mxCell>
        <mxCell id="f9" value="6" style="endArrow=classic;strokeColor=#ef6c00;" parent="1" source="vstaff" target="ngfw" edge="1">
          <mxGeometry relative="1" as="geometry" />
        </mxCell>
        <mxCell id="f10" value="6" style="endArrow=classic;strokeColor=#ef6c00;" parent="1" source="vguest" target="ngfw" edge="1">
          <mxGeometry relative="1" as="geometry" />
        </mxCell>
        <mxCell id="f11" value="6" style="endArrow=classic;strokeColor=#ef6c00;" parent="1" source="viot" target="ngfw" edge="1">
          <mxGeometry relative="1" as="geometry" />
        </mxCell>
        <mxCell id="f11b" value="6" style="endArrow=classic;strokeColor=#ef6c00;" parent="1" source="ngfw" target="pubdns" edge="1">
          <mxGeometry relative="1" as="geometry" />
        </mxCell>
        <mxCell id="f12" value="7" style="endArrow=classic;strokeColor=#6a1b9a;dashed=1;" parent="1" source="email" target="backup" edge="1">
          <mxGeometry relative="1" as="geometry" />
        </mxCell>
        <mxCell id="f13" value="7" style="endArrow=classic;strokeColor=#6a1b9a;dashed=1;" parent="1" source="saas" target="backup" edge="1">
          <mxGeometry relative="1" as="geometry" />
        </mxCell>
        <mxCell id="f14" value="8" style="endArrow=classic;strokeColor=#ad1457;dashed=1;dashPattern=1 4;" parent="1" source="idp" target="siem" edge="1">
          <mxGeometry relative="1" as="geometry" />
        </mxCell>
        <mxCell id="f15" value="8" style="endArrow=classic;strokeColor=#ad1457;dashed=1;dashPattern=1 4;" parent="1" source="email" target="siem" edge="1">
          <mxGeometry relative="1" as="geometry" />
        </mxCell>
        <mxCell id="f16" value="8" style="endArrow=classic;strokeColor=#ad1457;dashed=1;dashPattern=1 4;" parent="1" source="saas" target="siem" edge="1">
          <mxGeometry relative="1" as="geometry" />
        </mxCell>
        <mxCell id="f17" value="8" style="endArrow=classic;strokeColor=#ad1457;dashed=1;dashPattern=1 4;" parent="1" source="waf" target="siem" edge="1">
          <mxGeometry relative="1" as="geometry" />
        </mxCell>
        <mxCell id="f18" value="8" style="endArrow=classic;strokeColor=#ad1457;dashed=1;dashPattern=1 4;" parent="1" source="ngfw" target="siem" edge="1">
          <mxGeometry relative="1" as="geometry" />
        </mxCell>
        <mxCell id="f22" value="8" style="endArrow=classic;strokeColor=#ad1457;dashed=1;dashPattern=1 4;" parent="1" source="pubdns" target="siem" edge="1">
          <mxGeometry relative="1" as="geometry" />
        </mxCell>
        <mxCell id="f19" value="9" style="endArrow=classic;strokeColor=#ad1457;dashed=1;" parent="1" source="siem" target="ticket" edge="1">
          <mxGeometry relative="1" as="geometry" />
        </mxCell>
        <mxCell id="f20" value="6" style="endArrow=classic;strokeColor=#2e7d32;" parent="1" source="endpoints" target="email" edge="1">
          <mxGeometry relative="1" as="geometry" />
        </mxCell>
        <mxCell id="f21" value="6" style="endArrow=classic;strokeColor=#2e7d32;" parent="1" source="endpoints" target="saas" edge="1">
          <mxGeometry relative="1" as="geometry" />
        </mxCell>
      </root>
    </mxGraphModel>
  </diagram>
</mxfile>
